<svg width="256" height="256" viewBox="0 0 256 256" fill="none" xmlns="http://www.w3.org/2000/svg">
<g clip-path="url(#clip0_95_7)">
<path d="M229.056 60.6293C223.082 60.6341 217.278 62.6213 212.554 66.2793C207.83 69.9374 204.454 75.0595 202.955 80.8427H172.053C165.676 80.8414 159.504 83.1025 154.637 87.2236C149.77 91.3448 146.522 97.0588 145.472 103.349L144.373 110.005C143.854 113.153 142.232 116.014 139.797 118.076C137.362 120.138 134.273 121.266 131.083 121.259H120.405C118.91 115.475 115.535 110.352 110.811 106.695C106.088 103.038 100.283 101.053 94.3094 101.053C88.3355 101.053 82.5309 103.038 77.8074 106.695C73.0839 110.352 69.7092 115.475 68.2134 121.259H53.0454C51.4047 114.907 47.5037 109.371 42.0738 105.69C36.6438 102.008 30.0576 100.433 23.5496 101.26C17.0416 102.087 11.0585 105.259 6.72187 110.182C2.38522 115.104 -0.00732422 121.44 -0.00732422 128C-0.00732422 134.56 2.38522 140.896 6.72187 145.818C11.0585 150.741 17.0416 153.913 23.5496 154.74C30.0576 155.567 36.6438 153.992 42.0738 150.31C47.5037 146.629 51.4047 141.093 53.0454 134.741H68.2134C69.7055 140.53 73.0794 145.658 77.8043 149.319C82.5293 152.98 88.3372 154.967 94.3147 154.967C100.292 154.967 106.1 152.98 110.825 149.319C115.55 145.658 118.924 140.53 120.416 134.741H131.083C134.275 134.732 137.367 135.859 139.804 137.921C142.241 139.983 143.865 142.845 144.384 145.995L145.483 152.64C146.531 158.932 149.777 164.649 154.645 168.772C159.512 172.896 165.685 175.158 172.064 175.157H176.011C177.65 181.51 181.551 187.047 186.98 190.729C192.41 194.412 198.997 195.988 205.505 195.161C212.014 194.335 217.997 191.163 222.335 186.24C226.672 181.318 229.065 174.982 229.065 168.421C229.065 161.861 226.672 155.525 222.335 150.602C217.997 145.68 212.014 142.508 205.505 141.681C198.997 140.855 192.41 142.431 186.98 146.113C181.551 149.796 177.65 155.333 176.011 161.685H172.064C168.872 161.692 165.782 160.562 163.346 158.498C160.911 156.435 159.29 153.571 158.773 150.421L157.675 143.776C156.658 137.664 153.56 132.091 148.907 128C153.555 123.903 156.644 118.326 157.653 112.213L158.763 105.579C159.28 102.429 160.901 99.5654 163.336 97.5016C165.771 95.4377 168.861 94.308 172.053 94.3147H202.944C204.203 99.1967 206.806 103.628 210.457 107.105C214.108 110.581 218.662 112.964 223.599 113.983C228.537 115.001 233.662 114.615 238.391 112.867C243.12 111.119 247.264 108.079 250.352 104.094C253.44 100.108 255.348 95.3368 255.86 90.3211C256.372 85.3054 255.467 80.2467 253.248 75.7196C251.029 71.1925 247.584 67.3786 243.306 64.7111C239.028 62.0436 234.087 60.6294 229.045 60.6293M229.045 74.1013C232.618 74.1013 236.045 75.5207 238.572 78.0472C241.098 80.5737 242.517 84.0003 242.517 87.5733C242.519 89.3434 242.171 91.0964 241.495 92.7321C240.819 94.3678 239.826 95.8543 238.575 97.1064C237.324 98.3585 235.839 99.3518 234.203 100.029C232.568 100.707 230.815 101.056 229.045 101.056C227.275 101.056 225.523 100.707 223.887 100.029C222.252 99.3518 220.767 98.3585 219.515 97.1064C218.264 95.8543 217.272 94.3678 216.596 92.7321C215.919 91.0964 215.572 89.3434 215.573 87.5733C215.573 85.8033 215.922 84.0506 216.6 82.4154C217.278 80.7802 218.271 79.2945 219.523 78.0434C220.775 76.7923 222.262 75.8002 223.897 75.1238C225.533 74.4474 227.286 74.0999 229.056 74.1013M26.9441 114.528C28.7141 114.527 30.4671 114.874 32.1028 115.55C33.7386 116.227 35.225 117.219 36.4771 118.47C37.7292 119.721 38.7225 121.207 39.4002 122.842C40.0779 124.477 40.4267 126.23 40.4267 128C40.4267 129.77 40.0779 131.523 39.4002 133.158C38.7225 134.793 37.7292 136.279 36.4771 137.53C35.225 138.781 33.7386 139.773 32.1028 140.45C30.4671 141.126 28.7141 141.473 26.9441 141.472C23.3711 141.472 19.9444 140.053 17.4179 137.526C14.8914 135 13.4721 131.573 13.4721 128C13.4721 124.427 14.8914 121 17.4179 118.474C19.9444 115.947 23.3711 114.528 26.9441 114.528ZM94.3147 114.528C96.0839 114.528 97.8357 114.876 99.4702 115.553C101.105 116.231 102.59 117.223 103.841 118.474C105.092 119.725 106.084 121.21 106.761 122.844C107.438 124.479 107.787 126.231 107.787 128C107.787 131.573 106.367 135 103.841 137.526C101.314 140.053 97.8877 141.472 94.3147 141.472C90.7436 141.469 87.3197 140.049 84.7955 137.522C82.2713 134.996 80.8534 131.571 80.8534 128C80.8534 124.427 82.2728 121 84.7993 118.474C87.3257 115.947 90.7524 114.528 94.3254 114.528M202.123 154.955C205.696 154.955 209.122 156.374 211.649 158.901C214.175 161.427 215.595 164.854 215.595 168.427C215.595 172 214.175 175.426 211.649 177.953C209.122 180.479 205.696 181.899 202.123 181.899C200.353 181.9 198.6 181.553 196.964 180.876C195.328 180.2 193.842 179.208 192.59 177.957C191.338 176.705 190.344 175.22 189.667 173.585C188.989 171.949 188.64 170.197 188.64 168.427C188.639 166.657 188.986 164.904 189.662 163.268C190.339 161.632 191.331 160.146 192.582 158.894C193.833 157.642 195.319 156.648 196.954 155.971C198.589 155.293 200.342 154.944 202.112 154.944" fill="#D94545"/>
</g>
<defs>
<clipPath id="clip0_95_7">
<rect width="256" height="256" fill="white"/>
</clipPath>
</defs>
</svg>
