<svg width="256" height="256" viewBox="0 0 256 256" fill="none" xmlns="http://www.w3.org/2000/svg">
<path d="M147.099 20.8298C145.569 20.8298 144.113 21.1934 142.802 21.6303C145.643 23.5247 147.172 26.0002 147.973 28.8409C148.046 29.2053 148.118 29.4963 148.192 29.8607C148.265 30.225 148.337 30.516 148.337 30.8804C148.556 35.7606 147.026 36.3426 146.007 39.2559C144.404 42.9704 144.841 46.9768 146.807 50.1811C146.953 50.5455 147.172 50.9832 147.463 51.4193C145.351 37.3623 157.077 35.2503 159.262 30.8795C159.408 27.0199 156.276 24.471 153.8 22.7234C151.251 21.2659 149.065 20.8298 147.099 20.8298ZM164.725 23.9616C164.506 25.2723 164.652 24.9088 164.58 25.5633C164.506 26.0002 164.506 26.583 164.433 27.0199C164.288 27.4568 164.215 27.8937 164.07 28.3315L163.633 29.6422C163.413 30.0791 163.268 30.4435 163.05 30.9529L162.613 31.6083C162.467 31.7542 162.394 31.9727 162.249 32.1186C161.957 32.483 161.666 32.9199 161.447 33.2108C161.083 33.5752 160.864 33.9396 160.428 34.2306V34.3031C160.063 34.595 159.772 34.8859 159.408 35.1778C158.242 36.0516 156.931 36.707 155.693 37.5808C155.329 37.8726 154.892 38.0911 154.601 38.3829C154.237 38.673 153.872 38.9649 153.581 39.2559L152.562 40.2756C152.271 40.64 151.979 41.0043 151.76 41.3679C151.469 41.7322 151.177 42.17 150.959 42.5335C150.74 42.9704 150.595 43.3356 150.376 43.8451C150.231 44.282 150.013 44.6455 149.939 45.1558C149.794 45.6652 149.648 46.103 149.576 46.5399C149.502 46.7584 149.502 47.0493 149.43 47.2678C149.357 47.4863 149.357 47.7047 149.285 47.9232C149.285 48.3601 149.211 48.8704 149.211 49.3073C149.211 49.6716 149.211 49.9626 149.284 50.327C149.284 50.7639 149.357 51.2008 149.429 51.7111C149.502 52.148 149.576 52.5849 149.721 53.0218L150.158 54.3326C150.304 54.6244 150.449 54.9154 150.522 55.1347L137.777 50.1811C135.591 49.5983 133.479 49.0163 131.367 48.506C130.202 48.215 129.036 47.9232 127.871 47.7047C124.52 47.0474 121.143 46.5372 117.747 46.1755C117.602 46.1755 117.602 46.1022 117.455 46.1022C114.105 45.7386 110.828 45.5927 107.55 45.5927C105.074 45.5927 102.671 45.7378 100.267 45.8837C96.9165 46.1022 93.4938 46.5399 90.1427 47.1219C89.3414 47.2678 88.4676 47.4137 87.6664 47.5596C85.9187 47.9232 84.3162 48.2875 82.6411 48.6519C81.8398 48.8704 80.966 49.0888 80.1647 49.3073C79.3634 49.6716 78.5621 50.036 77.7617 50.327C77.1686 50.6247 76.5609 50.8921 75.9407 51.1283C75.7948 51.2008 75.7222 51.2008 75.6489 51.2733C75.1313 51.5255 74.6213 51.793 74.1197 52.0755C73.9746 52.148 73.8287 52.2206 73.7553 52.2206C73.1725 52.5115 72.518 52.8034 72.0077 53.0944C71.6433 53.2403 71.2055 53.4587 70.9154 53.6772C70.7695 53.8223 70.551 53.8956 70.4051 53.969C69.8957 54.2592 69.3854 54.551 68.9485 54.7695C68.4382 55.0613 68.0013 55.3523 67.6378 55.5716C67.2734 55.8617 66.8356 56.081 66.5455 56.372C66.4721 56.4445 66.3996 56.4446 66.3996 56.5171C66.0295 56.7437 65.6872 57.0129 65.3798 57.3192L65.2339 57.4643C64.9429 57.6827 64.6511 57.902 64.4326 58.1205C64.2876 58.193 64.2142 58.2656 64.0683 58.3389C63.7773 58.5574 63.4863 58.8484 63.267 59.0668C63.1945 59.2119 63.1219 59.2119 63.0485 59.2853C62.685 59.6497 62.3932 59.8681 62.0288 60.2325C61.9563 60.2325 61.9563 60.305 61.8837 60.3776C61.5194 60.6694 61.2284 60.9604 60.864 61.3248C60.7915 61.3973 60.7915 61.4698 60.7189 61.4698C60.4271 61.7617 60.1353 62.0535 59.9168 62.3445C59.7717 62.4896 59.6258 62.563 59.5533 62.7089C59.2614 63.0732 58.9705 63.3642 58.6061 63.7286C58.5336 63.8737 58.461 63.8737 58.3876 64.0196C57.9507 64.4565 57.5864 64.8934 57.0769 65.3303L56.931 65.4762C56.0572 66.4234 55.11 67.3706 54.0902 68.1711C53.0705 69.0449 52.0508 69.9195 50.9585 70.6474C49.8662 71.4487 48.774 72.1041 47.6083 72.7594C46.5161 73.3423 45.3504 73.9251 44.1122 74.4345C42.927 74.9478 41.7106 75.3859 40.4702 75.7461C38.1397 76.2555 35.7359 77.2027 33.6973 77.3487C33.2595 77.3487 32.7501 77.4937 32.3132 77.4937C31.8029 77.6388 31.366 77.7122 30.9291 77.8581C30.4922 78.004 30.0553 78.2225 29.6184 78.3675C29.1814 78.5126 28.7445 78.7319 28.3076 78.9504C27.9433 79.2422 27.5055 79.4607 27.0694 79.7525C26.7051 80.0426 26.2673 80.3345 25.9772 80.6988C25.612 80.9898 25.175 81.3542 24.8841 81.7186C24.5197 82.0821 24.2287 82.4465 23.9369 82.8108C23.6459 83.2477 23.3549 83.6121 23.1364 84.1216C22.8446 84.4859 22.5536 84.9237 22.3343 85.4331C22.115 85.9426 21.8982 86.3803 21.7523 86.8898C21.6073 87.3267 21.388 87.837 21.242 88.3464C21.097 88.7833 21.0236 89.2202 20.951 89.6571C20.951 89.7297 20.8785 89.8022 20.8785 89.8022C20.7326 90.3125 20.7326 90.9679 20.7326 91.3322C20.6601 91.6966 20.5875 92.061 20.5875 92.4245C20.5875 92.643 20.5875 92.9348 20.6601 93.1532C20.7326 93.5176 20.8051 93.8811 20.8785 94.173C21.0236 94.5373 21.097 94.8283 21.242 95.1927V95.2652C21.388 95.6296 21.6064 95.9206 21.8249 96.285C22.0433 96.6494 22.2618 96.9403 22.5536 97.3047C22.8446 97.5957 23.1364 97.8875 23.5008 98.1785C23.8643 98.5429 24.1553 98.7613 24.5197 99.0523C25.8313 100.218 26.1948 100.582 27.8699 101.529L28.7445 101.966C28.8171 101.966 28.8896 102.039 28.8896 102.039C28.8896 102.184 28.8896 102.184 28.963 102.33C29.0355 102.767 29.1081 103.204 29.254 103.642C29.3996 104.151 29.5452 104.588 29.6909 104.952C29.9093 105.498 29.9827 105.608 30.1278 105.972C30.2012 106.117 30.2737 106.19 30.2737 106.263C30.4922 106.7 30.7106 107.065 30.9291 107.501C31.2209 107.866 31.5119 108.303 31.7312 108.667C32.0213 109.031 32.3132 109.395 32.6776 109.687C33.0411 110.051 33.3329 110.269 33.6973 110.634C33.6973 110.634 33.7698 110.706 33.8424 110.706C34.2067 110.997 34.4977 111.289 34.8621 111.508C35.2265 111.799 35.6642 112.017 36.1003 112.235C36.4646 112.454 36.9024 112.672 37.4118 112.818C37.7754 112.963 38.1397 113.109 38.5041 113.183C38.5766 113.255 38.6492 113.255 38.7226 113.328C38.941 113.401 39.232 113.474 39.4505 113.474C39.3054 116.46 39.232 119.3 39.6689 120.32C40.1792 121.412 42.583 118.062 45.0586 114.129C44.695 117.99 44.4766 122.432 45.0586 123.816C45.6405 125.2 48.9924 120.903 51.9057 116.096C91.2358 106.991 127.142 134.158 130.93 172.615C130.202 166.642 122.845 163.292 119.422 164.093C117.747 168.172 114.906 173.489 110.391 176.766C110.755 173.124 110.609 169.337 109.808 165.695C108.57 170.794 106.167 175.601 102.961 179.68C97.7178 180.044 92.4006 177.495 89.6324 173.707C89.4148 173.562 89.3423 173.198 89.1964 172.979C89.0513 172.615 88.832 172.177 88.7595 171.814C88.6136 171.449 88.4676 171.012 88.3951 170.648C88.3226 170.283 88.3226 169.847 88.3226 169.411V168.608C88.3951 168.245 88.4676 167.808 88.6136 167.444C88.7595 167.079 88.832 166.642 88.9779 166.278C89.1964 165.914 89.3414 165.477 89.6333 165.113C90.5805 162.418 90.5805 160.305 88.832 158.995C88.4676 158.776 88.1766 158.63 87.8123 158.412C87.5938 158.339 87.3028 158.267 87.0844 158.193C86.9385 158.121 86.7925 158.048 86.6466 158.048C86.2831 157.902 85.8462 157.829 85.4818 157.757C85.1174 157.611 84.6805 157.611 84.3162 157.611C83.9518 157.538 83.5149 157.466 83.0788 157.466C82.787 157.466 82.4952 157.538 82.2767 157.538C81.8398 157.538 81.4754 157.611 81.0394 157.683C80.675 157.757 80.2372 157.829 79.8737 157.902C79.5093 158.048 79.0716 158.121 78.7081 158.267C78.3445 158.413 77.9802 158.63 77.6158 158.776C77.2514 158.922 76.9604 159.141 76.5961 159.359C63.6314 167.807 71.3523 187.546 80.2372 193.227C76.887 193.809 73.5369 194.538 72.5905 195.267L72.4446 195.412C74.8317 196.867 77.3418 198.11 79.9462 199.126C83.5149 200.292 87.302 201.311 88.9045 201.821V201.894C93.4938 202.841 98.1547 203.205 102.889 202.913C127.434 201.166 147.609 182.52 151.251 157.829C151.396 158.339 151.469 158.776 151.614 159.287C151.76 160.305 151.979 161.326 152.125 162.418V162.491C152.27 163 152.27 163.511 152.343 163.947V164.166C152.416 164.676 152.488 165.186 152.488 165.623C152.562 166.205 152.634 166.861 152.634 167.444V168.317C152.634 168.609 152.707 168.9 152.707 169.191C152.707 169.556 152.634 169.847 152.634 170.211V171.013C152.634 171.377 152.562 171.741 152.562 172.105C152.562 172.324 152.561 172.542 152.489 172.833C152.489 173.198 152.416 173.635 152.416 174.071C152.343 174.217 152.343 174.436 152.343 174.581C152.271 175.019 152.198 175.383 152.198 175.892C152.198 176.038 152.198 176.257 152.125 176.402C152.052 176.985 151.98 177.422 151.906 178.004V178.15C151.761 178.66 151.688 179.17 151.542 179.68V179.825C151.397 180.335 151.323 180.845 151.177 181.355C151.177 181.428 151.105 181.5 151.105 181.573C150.96 182.083 150.886 182.593 150.74 183.103V183.248C150.595 183.831 150.376 184.268 150.304 184.778C150.231 184.851 150.231 184.923 150.231 184.923C150.086 185.506 149.867 186.016 149.721 186.599C149.502 187.181 149.357 187.618 149.138 188.201C148.919 188.784 148.774 189.293 148.556 189.803C148.338 190.386 148.119 190.823 147.901 191.406H147.827C147.609 191.915 147.39 192.426 147.099 192.935C147.026 193.08 146.953 193.227 146.953 193.3C146.881 193.372 146.881 193.445 146.808 193.445C143.166 200.729 137.848 207.065 131.221 212.09C130.784 212.382 130.348 212.674 129.911 213.037C129.765 213.183 129.619 213.183 129.546 213.329C129.162 213.637 128.747 213.906 128.308 214.13L128.453 214.494H128.527C129.328 214.349 130.056 214.275 130.857 214.13H130.93C132.387 213.912 133.844 213.62 135.227 213.328C135.591 213.256 136.029 213.183 136.465 213.038C136.757 212.965 136.975 212.892 137.267 212.892C137.631 212.819 138.068 212.746 138.432 212.674C138.796 212.528 139.087 212.528 139.452 212.382C144.986 211.071 150.376 209.25 155.547 207.066C146.735 219.082 134.936 228.843 121.097 235.179C127.506 234.743 133.852 233.645 140.034 231.902C162.394 225.273 181.185 210.27 192.474 190.022C190.217 202.841 185.119 215.077 177.544 225.711C182.933 222.141 187.886 218.063 192.329 213.402C204.783 200.437 212.941 183.904 215.708 166.205C217.603 174.945 218.185 184.049 217.311 192.935C257.37 137.072 220.661 79.0963 205.293 63.8737C205.221 63.7286 205.148 63.7286 205.148 63.5827C205.075 63.6552 205.075 63.6552 205.075 63.7278C205.075 63.6552 205.075 63.6552 205.001 63.5827C205.001 64.238 204.929 64.8934 204.856 65.5488C204.711 66.8603 204.492 68.0251 204.273 69.2633C203.983 70.5015 203.691 71.7397 203.326 72.9053C202.962 74.071 202.526 75.3092 202.016 76.474C201.506 77.5663 200.996 78.7319 200.34 79.8242C199.728 80.8945 199.072 81.9392 198.374 82.9559C197.646 83.9765 196.844 84.9954 196.116 85.9426C195.314 86.9623 194.368 87.837 193.494 88.7099C192.911 89.2202 192.474 89.6571 191.892 90.094C191.455 90.4584 191.09 90.8228 190.581 91.1863C189.561 91.9884 188.614 92.7163 187.449 93.3708C186.429 94.0279 185.265 94.6824 184.172 95.2652C183.006 95.8481 181.841 96.285 180.675 96.7944C179.51 97.2322 178.272 97.5965 177.033 97.9601C175.795 98.3236 174.557 98.5429 173.319 98.7613C172.065 98.9741 170.801 99.1199 169.532 99.1983C168.658 99.2708 167.784 99.3433 166.837 99.3433C165.526 99.3433 164.288 99.1983 163.05 99.1257C161.738 98.9798 160.5 98.8339 159.262 98.5429C157.951 98.3244 156.786 97.9601 155.547 97.5957H155.475C156.713 97.4506 157.951 97.3772 159.117 97.1588C160.428 96.9403 161.593 96.6493 162.831 96.3575C164.069 95.994 165.308 95.6296 166.473 95.1927C167.711 94.7558 168.876 94.173 169.969 93.6627C171.134 93.0807 172.153 92.4979 173.319 91.8425C174.339 91.1138 175.432 90.3859 176.451 89.6571C177.47 88.8559 178.417 88.0546 179.292 87.1808C180.239 86.3795 181.04 85.4331 181.914 84.4859C182.715 83.4662 183.516 82.519 184.244 81.4993C184.389 81.3542 184.463 81.1358 184.608 80.9173C185.185 80.0447 185.719 79.1454 186.211 78.2225C186.793 77.1302 187.376 76.0379 187.886 74.8723C188.396 73.7066 188.833 72.541 189.197 71.3028C189.561 70.138 189.852 68.8998 190.144 67.6616C190.362 66.35 190.581 65.1852 190.726 63.9471C190.872 62.6355 190.945 61.3973 190.945 60.1591C190.945 59.2853 190.872 58.4115 190.799 57.4643C190.654 56.1536 190.508 54.9879 190.362 53.7497C190.144 52.439 189.852 51.2734 189.56 50.036C189.197 48.8704 188.76 47.6322 188.323 46.4665C187.886 45.3009 187.303 44.1361 186.793 43.0438C186.211 41.9515 185.556 40.8593 184.899 39.7662L182.715 36.707C181.913 35.7598 181.04 34.8126 180.165 33.8662C179.728 33.4293 179.218 32.919 178.708 32.483C176.232 30.516 173.611 28.695 170.988 27.0199C170.624 26.8015 170.26 26.6564 169.896 26.4371C168.148 25.1264 166.473 24.5444 164.725 23.9616Z" fill="#FF1744"/>
</svg>
