<svg width="256" height="256" viewBox="0 0 256 256" fill="none" xmlns="http://www.w3.org/2000/svg">
<g clip-path="url(#clip0_97_2)">
<path d="M196 0H60C26.8629 0 0 26.8629 0 60V196C0 229.137 26.8629 256 60 256H196C229.137 256 256 229.137 256 196V60C256 26.8629 229.137 0 196 0Z" fill="#242938"/>
<path d="M127.279 29C76.507 29 79.677 51.018 79.677 51.018L79.734 73.828H128.185V80.678H60.489C60.489 80.678 28 76.992 28 128.221C28 179.45 56.357 177.635 56.357 177.635H73.281V153.862C73.281 153.862 72.369 125.505 101.186 125.505H149.24C149.24 125.505 176.239 125.941 176.239 99.411V55.546C176.239 55.546 180.338 29 127.279 29ZM100.563 44.339C101.708 44.3381 102.842 44.5629 103.9 45.0007C104.958 45.4384 105.919 46.0805 106.729 46.8901C107.539 47.6997 108.181 48.661 108.618 49.7191C109.056 50.7771 109.281 51.911 109.28 53.056C109.281 54.2009 109.056 55.3347 108.618 56.3926C108.18 57.4505 107.538 58.4117 106.729 59.2213C105.919 60.0308 104.958 60.6727 103.9 61.1104C102.842 61.5481 101.708 61.7729 100.563 61.772C99.4182 61.7728 98.2844 61.5479 97.2266 61.1101C96.1688 60.6724 95.2076 60.0304 94.3981 59.2209C93.5886 58.4114 92.9466 57.4502 92.5089 56.3924C92.0711 55.3346 91.8462 54.2008 91.847 53.056C91.8461 51.9111 92.0709 50.7772 92.5086 49.7193C92.9463 48.6613 93.5882 47.7001 94.3977 46.8904C95.2073 46.0808 96.1685 45.4388 97.2264 45.001C98.2843 44.5632 99.4181 44.3382 100.563 44.339Z" fill="url(#paint0_linear_97_2)"/>
<path d="M128.721 227.958C179.493 227.958 176.323 205.941 176.323 205.941L176.266 183.13H127.815V176.281H195.511C195.511 176.281 228 179.966 228 128.736C228 77.506 199.643 79.323 199.643 79.323H182.719V103.096C182.719 103.096 183.631 131.453 154.814 131.453H106.76C106.76 131.453 79.7601 131.016 79.7601 157.546V201.412C79.7601 201.412 75.661 227.958 128.721 227.958ZM155.437 212.619C154.292 212.62 153.158 212.395 152.1 211.957C151.042 211.52 150.081 210.878 149.272 210.068C148.462 209.259 147.82 208.298 147.382 207.24C146.944 206.182 146.719 205.048 146.72 203.903C146.719 202.758 146.944 201.624 147.382 200.566C147.819 199.508 148.462 198.547 149.271 197.737C150.081 196.927 151.042 196.285 152.1 195.848C153.158 195.41 154.292 195.185 155.437 195.186C156.582 195.185 157.716 195.41 158.774 195.848C159.832 196.285 160.793 196.927 161.603 197.737C162.413 198.547 163.055 199.508 163.492 200.566C163.93 201.624 164.155 202.758 164.154 203.903C164.155 205.048 163.93 206.182 163.492 207.24C163.054 208.298 162.412 209.259 161.603 210.068C160.793 210.878 159.832 211.52 158.774 211.957C157.716 212.395 156.582 212.62 155.437 212.619Z" fill="url(#paint1_linear_97_2)"/>
</g>
<defs>
<linearGradient id="paint0_linear_97_2" x1="47.22" y1="46.896" x2="146.333" y2="145.02" gradientUnits="userSpaceOnUse">
<stop stop-color="#387EB8"/>
<stop offset="1" stop-color="#366994"/>
</linearGradient>
<linearGradient id="paint1_linear_97_2" x1="108.056" y1="109.905" x2="214.492" y2="210.522" gradientUnits="userSpaceOnUse">
<stop stop-color="#FFE052"/>
<stop offset="1" stop-color="#FFC331"/>
</linearGradient>
<clipPath id="clip0_97_2">
<path d="M0 128C0 57.3076 57.3076 0 128 0V0C198.692 0 256 57.3076 256 128V128C256 198.692 198.692 256 128 256V256C57.3076 256 0 198.692 0 128V128Z" fill="white"/>
</clipPath>
</defs>
</svg>
