<svg width="256" height="256" viewBox="0 0 256 256" fill="none" xmlns="http://www.w3.org/2000/svg">
<path d="M128 96C187.552 96 224 116.72 224 128C224 139.28 187.552 160 128 160C68.448 160 32 139.28 32 128C32 116.72 68.448 96 128 96ZM128 80C66.144 80 16 101.488 16 128C16 154.512 66.144 176 128 176C189.856 176 240 154.512 240 128C240 101.488 189.856 80 128 80Z" fill="#0288D1"/>
<path d="M128 112C124.836 112 121.742 112.938 119.111 114.696C116.48 116.455 114.429 118.953 113.218 121.877C112.007 124.801 111.69 128.018 112.307 131.121C112.925 134.225 114.449 137.076 116.686 139.314C118.924 141.551 121.775 143.075 124.879 143.693C127.982 144.31 131.199 143.993 134.123 142.782C137.047 141.571 139.545 139.52 141.304 136.889C143.062 134.258 144 131.165 144 128C144 123.757 142.314 119.687 139.314 116.686C136.313 113.686 132.243 112 128 112Z" fill="#0288D1"/>
<path d="M83.664 44.0559C99.8 44.0559 131.16 69.4719 155.712 112C185.488 163.576 185.768 205.496 176 211.136C174.873 211.72 173.612 211.996 172.344 211.936C156.208 211.936 124.84 186.528 100.288 144C70.512 92.4239 70.232 50.5039 80 44.8639C81.1292 44.2783 82.3934 43.9942 83.664 44.0559ZM83.656 28.0639C79.5789 27.9901 75.5557 29.0035 72 30.9999C49.04 44.2559 55.504 98.4319 86.432 152C112.704 197.52 148.192 227.944 172.352 227.944C176.428 228.011 180.448 226.992 184 224.992C206.96 211.744 200.496 157.568 169.568 104C143.296 58.4799 107.808 28.0559 83.648 28.0559L83.656 28.0639Z" fill="#0288D1"/>
<path d="M172.344 44.056C173.612 43.9958 174.873 44.2717 176 44.856C185.768 50.504 185.488 92.424 155.712 144C131.152 186.528 99.792 211.944 83.656 211.944C82.3881 212.004 81.1269 211.728 80 211.144C70.232 205.488 70.512 163.568 100.288 112C124.848 69.472 156.208 44.056 172.344 44.056ZM172.344 28.056C148.184 28.056 112.704 58.488 86.424 104C55.512 157.568 49.04 211.744 72 224.992C75.5541 226.994 79.5774 228.013 83.656 227.944C107.816 227.944 143.296 197.512 169.576 152C200.488 98.432 206.96 44.256 184 31.008C180.446 29.0061 176.423 27.9871 172.344 28.056Z" fill="#0288D1"/>
</svg>
